<svg width="17" height="16" viewBox="0 0 17 16" fill="none" xmlns="http://www.w3.org/2000/svg">
<path d="M13.8145 3.73019V3.73072C13.8145 4.26101 13.3845 4.69047 12.8547 4.69047C12.325 4.69047 11.895 4.26048 11.895 3.73072C11.895 3.20043 12.325 2.77096 12.8547 2.77096C13.3845 2.7715 13.8139 3.20043 13.8145 3.73019ZM8.58358 10.6672C7.1106 10.6672 5.91665 9.47324 5.91665 8.00027C5.91665 6.52729 7.1106 5.33333 8.58358 5.33333C10.0566 5.33333 11.2505 6.52729 11.2505 8.00027C11.2505 9.47271 10.0571 10.6667 8.58465 10.6667H8.58411L8.58358 10.6672ZM8.58358 3.89237C6.31463 3.89237 4.47568 5.73185 4.47568 8.00027C4.47568 10.2687 6.31517 12.1082 8.58358 12.1082C10.8525 12.1082 12.6915 10.2687 12.6915 8.00027C12.6915 8.00027 12.6915 8.00027 12.6915 7.99973C12.6915 5.73132 10.8525 3.89183 8.58358 3.89183C8.58358 3.89183 8.58358 3.89183 8.58305 3.89183L8.58358 3.89237ZM8.58358 1.44043C10.7192 1.44043 10.9736 1.4511 11.8171 1.48791C12.3522 1.49431 12.8611 1.59568 13.3322 1.77493L13.3018 1.7648C14.0028 2.03794 14.547 2.58211 14.8142 3.26498L14.8206 3.28312C14.9892 3.72378 15.0895 4.23327 15.0959 4.76516V4.76783C15.1338 5.61182 15.1423 5.86523 15.1423 8.00133C15.1423 10.1374 15.1322 10.3914 15.0933 11.2348C15.0831 11.7705 14.9812 12.2794 14.8025 12.7505L14.8126 12.7195C14.675 13.0802 14.4712 13.3875 14.2135 13.6404L14.213 13.6409C13.9607 13.8991 13.6534 14.1029 13.3103 14.2325L13.2933 14.2384C12.851 14.407 12.3399 14.5073 11.8059 14.5137H11.8032C10.9539 14.5516 10.7037 14.5601 8.56384 14.5601C6.42293 14.5601 6.17326 14.55 5.32447 14.511C4.78671 14.5009 4.27562 14.399 3.80241 14.2203L3.83389 14.2304C3.47325 14.0949 3.16595 13.8906 2.91521 13.6318L2.91468 13.6313C2.6538 13.3805 2.44894 13.0727 2.32037 12.7281L2.31503 12.7115C2.14698 12.2698 2.04508 11.7593 2.03495 11.2258V11.2215C2.00507 10.3812 1.9944 10.122 1.9944 7.99226C1.9944 5.86149 2.00507 5.60168 2.03495 4.75129C2.04508 4.21406 2.14645 3.70351 2.32517 3.23084L2.31503 3.26231C2.44681 2.90007 2.6522 2.59171 2.91415 2.34257L2.91521 2.3415C3.16489 2.07902 3.47271 1.8747 3.81788 1.74826L3.83442 1.74292C4.27349 1.57327 4.78084 1.47137 5.31113 1.46231H5.31487C6.16472 1.43243 6.41493 1.42229 8.55424 1.42229L8.58358 1.44043ZM8.58358 0C6.41013 0 6.13911 0.0101364 5.28552 0.0480144C4.58398 0.0629522 3.91871 0.19846 3.30306 0.43373L3.34361 0.420393C2.78877 0.63219 2.3161 0.946417 1.92665 1.34227L1.92612 1.3428C1.52866 1.73225 1.21497 2.20546 1.01224 2.73362L1.00317 2.76029C0.781239 3.3354 0.645732 4.0012 0.631327 4.69581V4.70221C0.591315 5.5558 0.583313 5.82681 0.583313 8.00027C0.583313 10.1737 0.593449 10.4447 0.631327 11.2983C0.646265 11.9999 0.781773 12.6651 1.01704 13.2808L1.00371 13.2402C1.42837 14.3184 2.26542 15.1555 3.31587 15.5705L3.34361 15.5801C3.91871 15.8015 4.58451 15.937 5.27912 15.952H5.28552C6.13911 15.992 6.41013 16 8.58358 16C10.757 16 11.028 15.9899 11.8816 15.952C12.5832 15.9365 13.2484 15.8015 13.8641 15.5663L13.8236 15.5801C14.9017 15.1555 15.7388 14.3184 16.1539 13.268L16.1635 13.2402C16.3854 12.6651 16.5204 11.9993 16.5353 11.3047V11.2983C16.5753 10.4447 16.5833 10.1737 16.5833 8.00027C16.5833 5.82681 16.5732 5.5558 16.5353 4.70221C16.5198 4.00067 16.3849 3.3354 16.1496 2.71975L16.1635 2.76029C15.9511 2.20546 15.6374 1.73279 15.241 1.34334L15.2405 1.3428C14.8511 0.94535 14.3779 0.631656 13.8497 0.428929L13.823 0.419859C13.2479 0.197926 12.5821 0.0624187 11.8875 0.0480144H11.8811C11.0275 0.00800242 10.7565 0 8.58305 0H8.58358Z" fill="#585954" stroke="#585954" stroke-width="0.00064"/>
</svg>
