<svg width="16" height="16" viewBox="0 0 16 16" fill="none" xmlns="http://www.w3.org/2000/svg">
<path d="M13.2312 3.73019V3.73072C13.2312 4.26101 12.8012 4.69047 12.2714 4.69047C11.7417 4.69047 11.3117 4.26048 11.3117 3.73072C11.3117 3.20043 11.7417 2.77096 12.2714 2.77096C12.8012 2.7715 13.2306 3.20043 13.2312 3.73019ZM8.00027 10.6672C6.52729 10.6672 5.33333 9.47324 5.33333 8.00027C5.33333 6.52729 6.52729 5.33333 8.00027 5.33333C9.47324 5.33333 10.6672 6.52729 10.6672 8.00027C10.6672 9.47271 9.47378 10.6667 8.00133 10.6667H8.0008L8.00027 10.6672ZM8.00027 3.89237C5.73132 3.89237 3.89237 5.73185 3.89237 8.00027C3.89237 10.2687 5.73185 12.1082 8.00027 12.1082C10.2692 12.1082 12.1082 10.2687 12.1082 8.00027C12.1082 8.00027 12.1082 8.00027 12.1082 7.99973C12.1082 5.73132 10.2692 3.89183 8.00027 3.89183C8.00027 3.89183 8.00027 3.89183 7.99973 3.89183L8.00027 3.89237ZM8.00027 1.44043C10.1358 1.44043 10.3903 1.4511 11.2338 1.48791C11.7689 1.49431 12.2778 1.59568 12.7489 1.77493L12.7185 1.7648C13.4195 2.03794 13.9637 2.58211 14.2309 3.26498L14.2373 3.28312C14.4059 3.72378 14.5062 4.23327 14.5126 4.76516V4.76783C14.5505 5.61182 14.559 5.86523 14.559 8.00133C14.559 10.1374 14.5489 10.3914 14.51 11.2348C14.4998 11.7705 14.3979 12.2794 14.2192 12.7505L14.2293 12.7195C14.0917 13.0802 13.8879 13.3875 13.6302 13.6404L13.6297 13.6409C13.3773 13.8991 13.0701 14.1029 12.727 14.2325L12.7099 14.2384C12.2677 14.407 11.7566 14.5073 11.2226 14.5137H11.2199C10.3706 14.5516 10.1204 14.5601 7.98053 14.5601C5.83962 14.5601 5.58994 14.55 4.74116 14.511C4.20339 14.5009 3.69231 14.399 3.2191 14.2203L3.25058 14.2304C2.88993 14.0949 2.58264 13.8906 2.3319 13.6318L2.33137 13.6313C2.07049 13.3805 1.86563 13.0727 1.73705 12.7281L1.73172 12.7115C1.56367 12.2698 1.46177 11.7593 1.45164 11.2258V11.2215C1.42176 10.3812 1.41109 10.122 1.41109 7.99226C1.41109 5.86149 1.42176 5.60168 1.45164 4.75129C1.46177 4.21406 1.56314 3.70351 1.74186 3.23084L1.73172 3.26231C1.86349 2.90007 2.06889 2.59171 2.33083 2.34257L2.3319 2.3415C2.58157 2.07902 2.8894 1.8747 3.23457 1.74826L3.25111 1.74292C3.69017 1.57327 4.19753 1.47137 4.72782 1.46231H4.73155C5.58141 1.43243 5.83162 1.42229 7.97092 1.42229L8.00027 1.44043ZM8.00027 0C5.82681 0 5.5558 0.0101364 4.70221 0.0480144C4.00067 0.0629522 3.3354 0.19846 2.71975 0.43373L2.76029 0.420393C2.20546 0.63219 1.73279 0.946417 1.34334 1.34227L1.3428 1.3428C0.94535 1.73225 0.631656 2.20546 0.428929 2.73362L0.419859 2.76029C0.197926 3.3354 0.0624187 4.0012 0.0480144 4.69581V4.70221C0.00800242 5.5558 0 5.82681 0 8.00027C0 10.1737 0.0101364 10.4447 0.0480144 11.2983C0.0629522 11.9999 0.19846 12.6651 0.43373 13.2808L0.420393 13.2402C0.845054 14.3184 1.6821 15.1555 2.73255 15.5705L2.76029 15.5801C3.3354 15.8015 4.0012 15.937 4.69581 15.952H4.70221C5.5558 15.992 5.82681 16 8.00027 16C10.1737 16 10.4447 15.9899 11.2983 15.952C11.9999 15.9365 12.6651 15.8015 13.2808 15.5663L13.2402 15.5801C14.3184 15.1555 15.1555 14.3184 15.5705 13.268L15.5801 13.2402C15.8021 12.6651 15.937 11.9993 15.952 11.3047V11.2983C15.992 10.4447 16 10.1737 16 8.00027C16 5.82681 15.9899 5.5558 15.952 4.70221C15.9365 4.00067 15.8015 3.3354 15.5663 2.71975L15.5801 2.76029C15.3678 2.20546 15.0541 1.73279 14.6577 1.34334L14.6572 1.3428C14.2677 0.94535 13.7945 0.631656 13.2664 0.428929L13.2397 0.419859C12.6646 0.197926 11.9988 0.0624187 11.3042 0.0480144H11.2978C10.4442 0.00800242 10.1732 0 7.99973 0H8.00027Z" fill="white" stroke="white" stroke-width="0.00064"/>
</svg>
