<svg width="14" height="16" viewBox="0 0 14 16" fill="none" xmlns="http://www.w3.org/2000/svg">
<path d="M7.3025 0.0133396C8.17597 5.06876e-08 9.04304 0.00693657 9.90958 0C9.93839 1.08371 10.3781 2.05909 11.0776 2.78156L11.0765 2.7805C11.8294 3.45868 12.8091 3.89835 13.889 3.97305L13.904 3.97412V6.66124C12.8838 6.63563 11.9244 6.40032 11.0594 5.99586L11.1032 6.01401C10.6849 5.81285 10.3311 5.60635 9.99495 5.37584L10.0227 5.39398C10.0163 7.34103 10.0291 9.28807 10.0094 11.2282C9.9544 12.2169 9.62571 13.1187 9.09853 13.8715L9.10921 13.855C8.22773 15.1175 6.79986 15.9461 5.17617 15.9952H5.1687C5.10307 15.9984 5.0257 16 4.9478 16C4.0247 16 3.1619 15.7428 2.42662 15.2962L2.44796 15.3085C1.10974 14.5033 0.186643 13.1256 0.0158964 11.5232L0.0137621 11.5014C0.000422492 11.1679 -0.00598054 10.8344 0.00735902 10.5078C0.268814 7.95785 2.40528 5.98519 5.00222 5.98519C5.29409 5.98519 5.58009 6.01027 5.85809 6.05776L5.82821 6.05349C5.84155 7.04009 5.80153 8.02721 5.80153 9.01381C5.57582 8.93217 5.31544 8.88468 5.04384 8.88468C4.04711 8.88468 3.19925 9.52178 2.8855 10.4113L2.8807 10.4273C2.80973 10.6551 2.76865 10.9171 2.76865 11.1882C2.76865 11.2981 2.77558 11.4069 2.78839 11.5136L2.78732 11.5008C2.96447 12.5925 3.90038 13.4164 5.0289 13.4164C5.06145 13.4164 5.09347 13.4159 5.12548 13.4143H5.12068C5.90131 13.3908 6.57896 12.9709 6.96207 12.3503L6.96741 12.3407C7.10987 12.1422 7.20752 11.9021 7.24007 11.6412L7.2406 11.6337C7.3073 10.4401 7.28062 9.25338 7.28702 8.05976C7.29343 5.37264 7.28062 2.69192 7.30036 0.0117389L7.3025 0.0133396Z" fill="white" stroke="white" stroke-width="0.00064"/>
</svg>
